<?xml version="1.0" encoding="utf-8"?>
<!-- Generator: Adobe Illustrator 26.0.1, SVG Export Plug-In . SVG Version: 6.00 Build 0)  -->
<svg version="1.1" baseProfile="tiny" id="Layer_1" xmlns="http://www.w3.org/2000/svg" xmlns:xlink="http://www.w3.org/1999/xlink"
	 x="0px" y="0px" viewBox="0 0 50 60" overflow="visible" xml:space="preserve">
<path fill="none" stroke="#303A42" stroke-width="3" stroke-miterlimit="10" d="M15.03,28.9V4.94c0-0.33,0.28-0.6,0.62-0.6h6.68
	c0.34,0,0.62,0.27,0.62,0.6v12.05h7.53v1.43h6.87v2.35c0,0,5.15-0.72,7.21,4.29l0,0l0.43,1.46c0,7.48-1.29,14.89-3.63,22.02
	c-0.64,1.93-1.18,3.83-1.44,5.33c-0.18,1.03-1.1,1.78-2.18,1.78H20.19c-0.95,0-1.79-0.57-2.09-1.43
	C16.95,50.99,13.5,42.67,5.53,33.2c-0.33-0.39-0.52-0.89-0.52-1.4v-5.1c0-0.32,0.27-0.57,0.59-0.56l4.7,0.13
	c0.68,0.02,1.31,0.38,1.64,0.96l2.07,3.54c0.8,2.13,1.5,2.48,1.27,0.92C15.16,30.77,15.03,29.84,15.03,28.9z"/>
<line fill="none" stroke="#303A42" stroke-width="3" stroke-miterlimit="10" x1="22.96" y1="16.99" x2="22.96" y2="27.52"/>
<line fill="none" stroke="#303A42" stroke-width="3" stroke-miterlimit="10" x1="30.5" y1="18.42" x2="30.5" y2="27.52"/>
<line fill="none" stroke="#303A42" stroke-width="3" stroke-miterlimit="10" x1="37.37" y1="20.77" x2="37.37" y2="30.01"/>
</svg>
