<?xml version="1.0" encoding="utf-8"?>
<!-- Generator: Adobe Illustrator 26.0.1, SVG Export Plug-In . SVG Version: 6.00 Build 0)  -->
<svg version="1.1" id="Layer_1" xmlns="http://www.w3.org/2000/svg" xmlns:xlink="http://www.w3.org/1999/xlink" x="0px" y="0px"
	 viewBox="0 0 50 50" style="enable-background:new 0 0 50 50;" xml:space="preserve">
<style type="text/css">
	.st0{fill:#253746;}
</style>
<g>
	<path class="st0" d="M42,38.9l5.1,0l0-37.3H1.7v37.3h5.1v-1.5H3.2l0-24.8h42.4l0,24.9H42V38.9z M31.2,8.7c-0.9,0-1.6-0.7-1.6-1.6
		s0.7-1.6,1.6-1.6c0.9,0,1.6,0.7,1.6,1.6S32.1,8.7,31.2,8.7z M36.6,8.7C35.7,8.7,35,8,35,7.1s0.7-1.6,1.6-1.6c0.9,0,1.6,0.7,1.6,1.6
		S37.5,8.7,36.6,8.7z M42,8.7c-0.9,0-1.6-0.7-1.6-1.6s0.7-1.6,1.6-1.6c0.9,0,1.6,0.7,1.6,1.6S43,8.7,42,8.7z"/>
	<rect x="7.6" y="15.5" class="st0" width="9.5" height="12.4"/>
	<path class="st0" d="M23,16.2L23,16.2c0,0.4,0.3,0.7,0.7,0.7H42c0.4,0,0.7-0.3,0.7-0.7v0c0-0.4-0.3-0.7-0.7-0.7H23.7
		C23.3,15.5,23,15.8,23,16.2z"/>
	<path class="st0" d="M23.6,19.9l13.2,0c0.4,0,0.7,0.3,0.7,0.7l0,0c0,0.4-0.3,0.7-0.7,0.7H23.6c-0.4,0-0.7-0.3-0.7-0.7v-0.1
		C22.9,20.2,23.3,19.9,23.6,19.9z"/>
	<path class="st0" d="M39.8,20.6L39.8,20.6c0,0.4,0.3,0.8,0.7,0.8h2.2c0.4,0,0.7-0.3,0.7-0.7v0c0-0.4-0.3-0.7-0.7-0.7h-2.2
		C40.1,19.9,39.8,20.2,39.8,20.6z"/>
	<path class="st0" d="M23.6,24.3l18.3,0c0.4,0,0.7,0.3,0.7,0.7l0,0c0,0.4-0.3,0.7-0.7,0.7H23.6c-0.4,0-0.7-0.3-0.7-0.7l0,0
		C22.9,24.6,23.3,24.3,23.6,24.3z"/>
	<path class="st0" d="M28.2,28.4L28.2,28.4c0.5,0.3,0.7,1,0.5,1.5l-6.3,18.2c-0.2,0.7-1,1-1.6,0.8l0,0c-0.7-0.2-1-1-0.8-1.6L26.2,29
		C26.5,28.2,27.5,27.9,28.2,28.4z"/>
	<path class="st0" d="M34.8,37.8l-3.9,1.6c-0.7,0.4-1.1,1.3-0.8,2l0,0c0.4,1,1.5,1.4,2.4,0.8l6.8-4.1c0.4-0.3,0.4-0.9,0-1.2
		l-6.9-4.1c-0.9-0.5-2-0.1-2.3,0.8l0,0c-0.3,0.8,0,1.6,0.7,2L34.8,37.8z"/>
	<path class="st0" d="M13.8,37.6l4.1,1.8c0.7,0.4,1.1,1.3,0.8,2l0,0c-0.4,1-1.5,1.4-2.4,0.8l-6.8-3.7c-0.4-0.3-0.5-1.5,0-1.8L16,33
		c0.3-0.2,0.8-0.3,1.2-0.3c0.5,0.1,0.9,0.4,1.2,1.1l0,0c0.3,0.8-0.1,1.3-0.9,1.7L13.8,37.6z"/>
</g>
</svg>
