<?xml version="1.0" encoding="utf-8"?>
<!-- Generator: Adobe Illustrator 26.0.1, SVG Export Plug-In . SVG Version: 6.00 Build 0)  -->
<svg version="1.1" id="Layer_1" xmlns="http://www.w3.org/2000/svg" xmlns:xlink="http://www.w3.org/1999/xlink" x="0px" y="0px"
	 viewBox="0 0 50 50" style="enable-background:new 0 0 50 50;" xml:space="preserve">
<style type="text/css">
	.st0{fill:#253746;}
</style>
<g>
	<g>
		<path class="st0" d="M23.85,23.42v0.05c0.01-0.02,0.01-0.05,0.01-0.07C23.86,23.41,23.86,23.41,23.85,23.42z M23.86,23.4
			c0.01-0.01,0.01-0.02,0.01-0.03C23.87,23.32,23.86,23.35,23.86,23.4z"/>
		<g>
			<path class="st0" d="M26.87,12.54c0,2.8-2.19,5.3-4.92,5.3c-2.71,0-4.76-2.47-4.76-5.26c0-2.79,2.05-4.57,4.76-4.57
				C24.67,8.01,26.87,9.74,26.87,12.54z"/>
			<path class="st0" d="M33,10.97c-0.1-0.04-0.24-0.11-0.35-0.12c-0.95-0.07-1.63-0.75-1.86-1.68c-0.16-0.65-0.16-0.69,0.16-1.23
				c0.5-0.85,0.39-1.92-0.27-2.65l-0.14-0.16c-0.77-0.84-1.84-1.48-2.77-0.9c-0.59,0.37-1.36,0.47-2.15,0.13
				c-0.73-0.31-1.2-1.03-1.3-1.81l-0.02-0.15c-0.13-0.9-0.76-0.82-1.58-0.85c-0.24-0.01-0.5-0.02-0.75-0.02
				c-0.18,0-0.36-0.01-0.53,0.01c-0.73,0.07-1.23,0.06-1.57,0.88c-0.08,0.19-0.05,0.42-0.13,0.63c-0.22,0.67-0.79,1.22-1.48,1.41
				c-0.66,0.19-1.31,0.09-1.82-0.21c-0.6-0.34-1.31-0.44-1.93-0.14c-0.39,0.19-0.54,0.4-0.74,0.6c-0.67,0.73-1.33,1.71-0.73,2.51
				c0.4,0.53,0.57,1.25,0.36,2c-0.23,0.86-0.76,1.6-1.65,1.62h-0.01c-0.58,0-1.08,0.47-1.11,1.05c-0.01,0.25-0.03,0.48-0.03,0.73
				c0,0.44,0.02,0.88,0.07,1.31c0.07,0.58,0.57,1,1.16,1.05c0.67,0.05,0.91,0.47,1.46,1.51c0.1,0.19,0.16,0.39,0.19,0.59
				c0.04,0.4-0.29,1.3-0.44,1.65c-0.47,1.06,0.13,1.9,0.98,2.68l0.09,0.08c0.4,0.37,1.24,0.44,1.93,0.29
				c1.18-0.26,2.91-0.03,3.43,0.64c0.27,0.35,0.53,0.15,0.73,0.64c0.35,0.88,1.17,1.4,2.11,1.39c1.25-0.01,2.21-0.66,2.38-1.71
				c0.17-1.03,1.35-1.2,2.38-1.31c0.41-0.05,0.92-0.11,1.25-0.03c1.52,0.39,1.85-0.56,2.49-1.21c0.05-0.05,0.1-0.1,0.16-0.16
				c0.36-0.57,0.46-1.02-0.02-1.82c-0.35-0.58-0.48-1.36,0.26-2.09c0.93-0.91,1-1.02,1.82-1.29h0.01c0.56-0.03,0.54-1.58,0.64-2.22
				C33.76,11.96,33.53,11.2,33,10.97z M21.92,19.81c-3.8,0-6.67-3.46-6.67-7.37c0-3.91,2.88-6.4,6.67-6.4c3.8,0,6.89,2.42,6.89,6.34
				C28.81,16.29,25.72,19.81,21.92,19.81z"/>
		</g>
		<g>
			<path class="st0" d="M38.32,40.42v0.04c0.01-0.02,0.01-0.04,0.01-0.05C38.33,40.41,38.32,40.41,38.32,40.42z M38.33,40.4
				c0.01-0.01,0.01-0.02,0.01-0.02C38.33,40.34,38.33,40.37,38.33,40.4z"/>
			<path class="st0" d="M44.99,31.34c-0.07-0.03-0.18-0.08-0.26-0.08c-0.69-0.05-1.19-0.55-1.36-1.22c-0.11-0.48-0.11-0.5,0.11-0.9
				c0.36-0.62,0.28-1.4-0.2-1.93l-0.1-0.11c-0.56-0.61-1.34-1.08-2.02-0.66c-0.43,0.27-0.99,0.34-1.57,0.1
				c-0.53-0.22-0.87-0.75-0.95-1.32l-0.01-0.11c-0.1-0.65-0.55-0.59-1.15-0.62c-0.18-0.01-0.36-0.02-0.55-0.02
				c-0.13,0-0.26-0.01-0.39,0.01c-0.53,0.05-0.9,0.04-1.15,0.64c-0.06,0.14-0.04,0.3-0.09,0.46c-0.16,0.49-0.58,0.89-1.08,1.03
				c-0.48,0.14-0.95,0.06-1.33-0.15c-0.43-0.25-0.96-0.32-1.41-0.1c-0.28,0.14-0.39,0.29-0.54,0.44c-0.49,0.53-0.97,1.24-0.54,1.83
				c0.29,0.39,0.42,0.91,0.26,1.46c-0.17,0.63-0.55,1.17-1.2,1.18h-0.01c-0.42,0-0.78,0.34-0.81,0.76
				c-0.01,0.18-0.02,0.35-0.02,0.53c0,0.32,0.02,0.64,0.05,0.95c0.05,0.42,0.42,0.73,0.84,0.76c0.49,0.04,0.66,0.35,1.06,1.1
				c0.07,0.14,0.12,0.28,0.14,0.43c0.03,0.29-0.21,0.95-0.32,1.21c-0.34,0.77,0.1,1.38,0.71,1.96l0.06,0.06
				c0.29,0.27,0.91,0.32,1.41,0.21c0.86-0.19,2.12-0.02,2.5,0.46c0.2,0.26,0.38,0.11,0.53,0.47c0.26,0.64,0.85,1.02,1.54,1.01
				c0.91-0.01,1.61-0.48,1.74-1.24c0.12-0.75,0.98-0.87,1.74-0.96c0.3-0.03,0.67-0.08,0.91-0.02c1.11,0.29,1.35-0.41,1.81-0.88
				c0.04-0.04,0.08-0.08,0.11-0.12c0.26-0.42,0.33-0.75-0.01-1.33c-0.25-0.42-0.35-0.99,0.19-1.52c0.68-0.66,0.73-0.74,1.32-0.94H45
				c0.41-0.02,0.4-1.15,0.46-1.62C45.54,32.06,45.37,31.51,44.99,31.34z M36.91,37.78c-2.77,0-4.86-2.52-4.86-5.37
				c0-2.85,2.1-4.66,4.86-4.66c2.77,0,5.02,1.77,5.02,4.62C41.93,35.22,39.69,37.78,36.91,37.78z"/>
		</g>
	</g>
	<path class="st0" d="M43.48,8.26v14.99c0,0.65-0.52,1.17-1.17,1.17h0c-0.59,0-1.17-0.15-1.7-0.42c-3.2-1.65-5.31-0.01-6.07,0.77
		c-0.23,0.24-0.53,0.39-0.86,0.45c-3.53,0.67-4.55,2.65-4.91,4.34c-0.24,1.11-1.39,2.01-2.52,2.01c-5.14,0-17.74,0-22.84,0
		c-1.22,0-2.2-0.99-2.2-2.2V8.56l10.01-0.3v0.1c-1.85,0.44-3.22,2.2-3.22,4.31c0,2.19,1.48,4,3.43,4.34l0.01,0.36
		c-0.5,0.73-0.81,1.64-0.81,2.63c0,2.43,1.84,4.41,4.11,4.41c0.79,0,1.53-0.24,2.16-0.67l0.87,1.02l0.5,0.07
		c0.7,1.38,2.05,2.31,3.62,2.31c1.16,0,2.22-0.52,2.96-1.36l0.01-0.01l2.37-1.71c0.48,0.22,1.01,0.33,1.56,0.33
		c2.27,0,4.11-1.98,4.11-4.41v-2.72c1.84-0.44,3.22-2.2,3.22-4.31c0-2.11-1.38-3.87-3.22-4.31V8.26H43.48z"/>
	<path class="st0" d="M27.59,33.43c0,0-0.59,2.78,1.21,2.94v2.14H2.57c0,0-2.14,0-1.75-1.67l-0.05-3.42H27.59z"/>
	<path class="st0" d="M17.25,44.43l1.07-6.65h1.43l-1.25,6.65l-0.83,0.03l-3.2,0.16c-1.07,0-1.99,0.78-2.16,1.84l0,0
		C12.08,47.79,13.11,49,14.46,49l16.1-0.15c0.58-0.01,1.09-0.4,1.22-0.96c0.07-0.3,0.09-0.68-0.03-1.13
		c-0.34-1.3-2.04-2.16-3.39-2.17l-9.63-0.13L17.25,44.43"/>
	<polygon class="st0" points="24.06,38.51 25.53,44.55 26.24,44.55 25.81,38.51 	"/>
</g>
</svg>
