<?xml version="1.0" encoding="utf-8"?>
<!-- Generator: Adobe Illustrator 26.0.1, SVG Export Plug-In . SVG Version: 6.00 Build 0)  -->
<svg version="1.1" id="Layer_1" xmlns="http://www.w3.org/2000/svg" xmlns:xlink="http://www.w3.org/1999/xlink" x="0px" y="0px"
	 viewBox="0 0 50 50" style="enable-background:new 0 0 50 50;" xml:space="preserve">
<style type="text/css">
	.st0{fill:#253746;}
</style>
<g>
	<path class="st0" d="M18.3,1.76c0,0-2.97-0.36-4.02,1.61l1.84,1.83L18.3,1.76z"/>
	<path class="st0" d="M21.78,0.78c0,0-2.97,0.42-3.76,5.2h7.46C25.49,5.98,25.64,1.53,21.78,0.78z"/>
	<path class="st0" d="M25.7,1.38c-0.43-0.18,2.44-0.1,3.9,1.76L27.51,4.5L25.7,1.38z"/>
	<path class="st0" d="M31.61,4.39l-3.15,2.37v7.24h2.95c0,0-2.51-3.83,2.15-6.54L31.61,4.39z"/>
	<path class="st0" d="M28.55,15.61h2.88c0,0,1.7,3.8,3.62,3.05v0c0,1.33-0.41,2.63-1.23,3.67c-1.03,1.3-2.71,2.43-5.06,0.95
		l-0.3-0.2v-7.39C28.47,15.65,28.5,15.61,28.55,15.61z"/>
	<path class="st0" d="M20.01,23.86h5.23c0,0-0.96,2.66-3,3.71C22.25,27.57,23.04,24.95,20.01,23.86z"/>
	<path class="st0" d="M8.36,15.61h6.64v7.29v0.46h-1.43h-2.21C11.35,23.36,8.36,21.68,8.36,15.61z"/>
	<path class="st0" d="M12.78,4.78c0,0-4.07,1.91-4.42,8.55h6.64c0,0-0.51-4.5,0.81-6.19L12.78,4.78z"/>
	<rect x="17.26" y="7.46" class="st0" width="8.97" height="5.88"/>
	<path class="st0" d="M17.26,15.61c0,0-0.15,6.07,0,6.07s8.97,0,8.97,0v-6.07H17.26z"/>
	<path class="st0" d="M1.64,25.57L1.64,25.57l8.7,4.77c0.39,0.15,0.82,0.15,1.2,0l8.7-4.77l0,0H1.64z"/>
	<path class="st0" d="M1.64,27.57l8.42,4.73c0.56,0.31,1.23,0.31,1.79,0l8.4-4.67V38H1.64V27.57z"/>
	<path class="st0" d="M45.55,15.61h-5.2v8.25h-0.5l-2.35-6.39c-0.07-0.18-0.23-0.3-0.42-0.3l-0.88-0.02
		c-0.98-0.03-1.88-0.55-2.37-1.39c-1.14-1.94-2.58-5.13,0.09-6.37c0.36-0.16,0.7-0.3,1.06-0.45c0.44-0.18,0.88-0.4,1.29-0.63
		l5.46-3.11C41.72,5.18,40.82,11.78,45.55,15.61z"/>
	<path class="st0" d="M26.97,24.6c0,0,2.31,0.86,2.31,1c-1.31,1.97-3.51,2.41-3.51,2.41L26.97,24.6z"/>
	
		<ellipse transform="matrix(0.9375 -0.3479 0.3479 0.9375 -0.3578 16.6479)" class="st0" cx="46.18" cy="9.32" rx="1.67" ry="6.74"/>
</g>
</svg>
