<?xml version="1.0" encoding="utf-8"?>
<!-- Generator: Adobe Illustrator 26.0.1, SVG Export Plug-In . SVG Version: 6.00 Build 0)  -->
<svg version="1.1" id="Layer_1" xmlns="http://www.w3.org/2000/svg" xmlns:xlink="http://www.w3.org/1999/xlink" x="0px" y="0px"
	 viewBox="0 0 50 50" style="enable-background:new 0 0 50 50;" xml:space="preserve">
<style type="text/css">
	.st0{fill:#253746;}
</style>
<circle class="st0" cx="39.44" cy="21.7" r="4.81"/>
<circle class="st0" cx="10.72" cy="21.7" r="4.81"/>
<path class="st0" d="M49,37.4H30.2c0-5.25,3.96-9.69,9.22-9.69C44.68,27.71,49,32.15,49,37.4z"/>
<path class="st0" d="M20.12,37.4H1.32c0-5.25,3.96-9.69,9.22-9.69C15.79,27.71,20.12,32.15,20.12,37.4z"/>
<path class="st0" d="M25.02,2.39c-0.1,0.22-8.63,2.77-6.54,9.78c0.04,0.12-0.03,0.26-0.16,0.29l-6.27,1.48l2.13-2.21
	c0,0-5.85-5.63-0.24-8.47c1.19-0.6,2.52-0.87,3.86-0.87L25.02,2.39z"/>
<path class="st0" d="M33.95,14.01c-0.15-0.29-0.04-0.66,0.26-0.8c1.61-0.74,2.59-1.88,2.59-3.37c0-2.81-3.53-4.77-8.12-4.77
	s-8.03,1.96-8.03,4.77c0,2.8,3.44,4.79,8.03,4.75c0.44,0,0.96-0.01,1.4,0.01c0.14,0.01,0.27,0.01,0.4,0.05l6.58,2.22
	C36.77,16.68,34.62,15.3,33.95,14.01z M24.86,11.04c-0.7,0-1.27-0.57-1.27-1.27c0-0.69,0.57-1.26,1.27-1.26s1.27,0.57,1.27,1.26
	C26.12,10.48,25.55,11.04,24.86,11.04z M28.73,11.1c-0.7,0-1.27-0.57-1.27-1.27c0-0.7,0.57-1.27,1.27-1.27S30,9.14,30,9.84
	C30,10.54,29.43,11.1,28.73,11.1z M32.48,11.1c-0.7,0-1.27-0.57-1.27-1.27c0-0.7,0.57-1.27,1.27-1.27c0.7,0,1.27,0.57,1.27,1.27
	C33.75,10.54,33.18,11.1,32.48,11.1z"/>
</svg>
